<?xml version="1.0" encoding="utf-8"?>
<!-- Generator: Adobe Illustrator 16.0.0, SVG Export Plug-In . SVG Version: 6.00 Build 0)  -->
<!DOCTYPE svg PUBLIC "-//W3C//DTD SVG 1.1//EN" "http://www.w3.org/Graphics/SVG/1.1/DTD/svg11.dtd">
<svg version="1.1" id="Layer_1" xmlns="http://www.w3.org/2000/svg" xmlns:xlink="http://www.w3.org/1999/xlink" x="0px" y="0px"
	 width="55px" height="55px" viewBox="-2 -2 55 55" enable-background="new -2 -2 55 55" xml:space="preserve">
<g>
	<path fill="none" stroke="#0968B5" stroke-width="2" stroke-miterlimit="10" d="M31,28.867c0,3.167-2.152,5.734-5.5,5.734l0,0
		c-3.348,0-5.5-2.567-5.5-5.734v-3.346c0-3.167,2.152-5.735,5.5-5.735l0,0c3.348,0,5.5,2.568,5.5,5.735V28.867z"/>
	<path fill="none" stroke="#0968B5" stroke-width="1.9592" stroke-miterlimit="10" d="M17.773,40.811
		c2.658-3.274,4.309-3.194,7.721-3.194c6.387,0,5.895,0.793,8.515,3.188"/>
	<line fill="none" stroke="#19D2CC" stroke-width="2" stroke-miterlimit="10" x1="22" y1="26" x2="25" y2="26"/>
	<line fill="none" stroke="#19D2CC" stroke-width="2" stroke-miterlimit="10" x1="26" y1="26" x2="29" y2="26"/>
</g>
<path fill="none" stroke="#0968B5" stroke-width="2" stroke-miterlimit="10" d="M50,31V21h-8.081c-0.338-1-0.787-2.058-1.337-3.058
	l5.553-5.495l-6.748-6.72l-5.472,5.6C32.958,10.813,32,10.405,31,10.083V2H21v8.021c-1,0.329-2.11,0.772-3.133,1.321l-5.528-5.585
	l-6.72,6.748l5.566,5.438c-0.549,1-0.984,2.058-1.322,3.058H2v10h7.8c0.329,1,0.772,2.11,1.322,3.136l-5.474,5.416l6.748,6.721
	l5.326-5.455C18.788,41.402,20,41.857,21,42.202V50h10v-7.859c1-0.339,2.061-0.789,3.061-1.338l5.383,5.44l6.721-6.748l-5.487-5.359
	C41.225,33.111,41.652,32,41.982,31H50z"/>
</svg>
