<?xml version="1.0" encoding="utf-8"?>
<!-- Generator: Adobe Illustrator 16.0.0, SVG Export Plug-In . SVG Version: 6.00 Build 0)  -->
<!DOCTYPE svg PUBLIC "-//W3C//DTD SVG 1.1//EN" "http://www.w3.org/Graphics/SVG/1.1/DTD/svg11.dtd">
<svg version="1.1" id="Layer_1" xmlns="http://www.w3.org/2000/svg" xmlns:xlink="http://www.w3.org/1999/xlink" x="0px" y="0px"
	 width="55px" height="55px" viewBox="0 0 55 55" enable-background="new 0 0 55 55" xml:space="preserve">
<g>
	<circle fill="none" stroke="#323232" stroke-width="2.2588" stroke-miterlimit="10" cx="25.696" cy="26.358" r="24"/>
	<path fill="none" stroke="#323232" stroke-width="2" stroke-miterlimit="10" d="M35,37.498C35,37.744,34.484,38,34.309,38H22.607
		C22.431,38,22,37.744,22,37.498V21.117C22,20.87,22.431,21,22.607,21h11.702C34.484,21,35,20.87,35,21.117V37.498z"/>
	<path fill="none" stroke="#323232" stroke-width="2" stroke-miterlimit="10" d="M29,18v-3.66c0-0.247-0.162-0.34-0.339-0.34H16.96
		C16.784,14,17,14.094,17,14.34v16.381C17,30.968,16.784,31,16.96,31H20"/>
</g>
</svg>
