<?xml version="1.0" encoding="utf-8"?>
<!-- Generator: Adobe Illustrator 16.0.0, SVG Export Plug-In . SVG Version: 6.00 Build 0)  -->
<!DOCTYPE svg PUBLIC "-//W3C//DTD SVG 1.1//EN" "http://www.w3.org/Graphics/SVG/1.1/DTD/svg11.dtd">
<svg version="1.1" id="Layer_1" xmlns="http://www.w3.org/2000/svg" xmlns:xlink="http://www.w3.org/1999/xlink" x="0px" y="0px"
	 width="55px" height="55px" viewBox="-2 -2 55 55" enable-background="new -2 -2 55 55" xml:space="preserve">
<g>
	<path fill="none" stroke="#0968B5" stroke-width="2" stroke-miterlimit="10" d="M48,44H10.613C9.348,44,8,42.73,8,41.466V16.075
		C8,14.81,9.348,14,10.613,14h37.418C49.296,14,50,14.81,50,16.075V38"/>
	<path fill="none" stroke="#19D2CC" stroke-width="2" stroke-miterlimit="10" d="M5,37H4.688C3.422,37,2,36.436,2,35.17V9.779
		C2,8.514,3.422,7,4.688,7h37.417C43.37,7,44,8.514,44,9.779V11"/>
</g>
<g>
	<g>
		<polygon fill="none" stroke="#0968B5" stroke-width="1.9394" stroke-miterlimit="10" points="23.817,28.992 24.89,26.979 
			26.09,28.986 		"/>
	</g>
	<path fill="none" stroke="#0968B5" stroke-width="2" stroke-miterlimit="10" d="M28.618,18.937c-5.222,0-9.503,4.282-9.503,9.502
		c0,3.511,1.985,6.599,4.824,8.229L25,36.409V27"/>
</g>
<g>
	<g>
		<polygon fill="none" stroke="#0968B5" stroke-width="1.9394" stroke-miterlimit="10" points="32.98,28.189 31.907,30.204 
			30.707,28.193 		"/>
	</g>
	<path fill="none" stroke="#0968B5" stroke-width="2" stroke-miterlimit="10" d="M28.279,38.154c5.223,0,9.453-4.236,9.453-9.459
		c0-3.509-1.909-6.573-4.748-8.204L32,20.773V30"/>
</g>
</svg>
