<?xml version="1.0" encoding="utf-8"?>
<!-- Generator: Adobe Illustrator 16.0.0, SVG Export Plug-In . SVG Version: 6.00 Build 0)  -->
<!DOCTYPE svg PUBLIC "-//W3C//DTD SVG 1.1//EN" "http://www.w3.org/Graphics/SVG/1.1/DTD/svg11.dtd">
<svg version="1.1" id="Layer_1" xmlns="http://www.w3.org/2000/svg" xmlns:xlink="http://www.w3.org/1999/xlink" x="0px" y="0px"
	 width="200px" height="200px" viewBox="0 0 807.76 687.244" enable-background="new 0 0 807.76 687.244"
	 xml:space="preserve">
<g>
	<path fill="none" stroke="#0968B5" stroke-width="47" stroke-miterlimit="10" d="M540.063,381.989
		c0,75.91-61.27,137.458-141.5,137.458l0,0c-80.232,0-141.5-61.548-141.5-137.458V251.803c0-75.911,61.268-137.458,141.5-137.458
		l0,0c80.23,0,141.5,61.547,141.5,137.458V381.989z"/>
	
		<line fill="none" stroke="#19D2CC" stroke-width="47" stroke-miterlimit="10" x1="316.563" y1="275.064" x2="375.563" y2="275.064"/>
	
		<line fill="none" stroke="#19D2CC" stroke-width="47" stroke-miterlimit="10" x1="421.563" y1="275.064" x2="480.563" y2="275.064"/>
</g>
<path fill="none" stroke="#0968B5" stroke-width="47" stroke-miterlimit="10" d="M191.618,246.698
	c0-110.387,89.485-199.634,199.871-199.634h14.149c110.385,0,199.87,89.366,199.87,199.753"/>
<path fill="none" stroke="#0968B5" stroke-width="47" stroke-miterlimit="10" d="M213.563,406.064H163.61
	c-10.313,0-18.547-8.406-18.547-18.717V264.425c0-10.313,8.234-18.36,18.547-18.36h49.953"/>
<path fill="none" stroke="#0968B5" stroke-width="47" stroke-miterlimit="10" d="M583.563,246.064h49.953
	c10.312,0,18.547,8.048,18.547,18.36v122.923c0,10.311-8.235,18.717-18.547,18.717h-49.791H393.563"/>
<g>
	<path fill="none" stroke="#0968B5" stroke-width="47.6544" stroke-miterlimit="10" d="M117.222,645.479
		c0-100.008,125.942-127.088,281.308-127.088s281.308,27.08,281.308,127.088"/>
</g>
</svg>
